# xmcd
#
# Track frame offsets:
#	150
#	13531
#	26295
#	40426
#	52269
#	71469
#	86991
#	98893
#	113508
#	135760
#	153598
#	171074
#
# Disc length: 2489 seconds
#
# Revision: 0
# Processed by: cddbd v1.4PL0 Copyright (c) Steve Scherf et al.
# Submitted via: dBpowerAMP V4.0
#
DISCID=9309b70c
DTITLE=Trick Pony - On A Mission
DYEAR=2002
DGENRE=Country
TTITLE0=On A Mission
TTITLE1=Nobody Ever Died Of A Broken Heart
TTITLE2=I'm Not Thinkin' Straight Anymore
TTITLE3=Love Is A Ball
TTITLE4=Love Be Still
TTITLE5=A Boy Like You
TTITLE6=Hillbilly Blues
TTITLE7=Leavin' Seems To Be A Goin' Thing
TTITLE8=Rain
TTITLE9=Whiskey River (Featuring Willie Nelson)
TTITLE10=The Devil And Me
TTITLE11=Fast Horse
EXTD=
EXTT0=
EXTT1=
EXTT2=
EXTT3=
EXTT4=
EXTT5=
EXTT6=
EXTT7=
EXTT8=
EXTT9=
EXTT10=
EXTT11=
PLAYORDER=
